HIERARCHY
ROOT Hips
{
	OFFSET -0.001795 -0.223333 0.028219
	CHANNELS 6 Xposition Yposition Zposition Zrotation Yrotation Xrotation 
	JOINT LeftUpLeg
	{
		OFFSET 0.069520 -0.091406 -0.006815
		CHANNELS 3 Zrotation Yrotation Xrotation
		JOINT LeftLeg
		{
			OFFSET 0.034277 -0.375199 -0.004496
			CHANNELS 3 Zrotation Yrotation Xrotation
			JOINT LeftFoot
			{
				OFFSET -0.013596 -0.397961 -0.043693
				CHANNELS 3 Zrotation Yrotation Xrotation
				JOINT LeftToe
				{
					OFFSET 0.026358 -0.055791 0.119288
					CHANNELS 3 Zrotation Yrotation Xrotation
					End Site
					{
						OFFSET 0.000000 0.000000 0.000000
					}
				}
			}
		}
	}
	JOINT RightUpLeg
	{
		OFFSET -0.067670 -0.090522 -0.004320
		CHANNELS 3 Zrotation Yrotation Xrotation
		JOINT RightLeg
		{
			OFFSET -0.038290 -0.382569 -0.008850
			CHANNELS 3 Zrotation Yrotation Xrotation
			JOINT RightFoot
			{
				OFFSET 0.015774 -0.398415 -0.042312
				CHANNELS 3 Zrotation Yrotation Xrotation
				JOINT RightToe
				{
					OFFSET -0.025372 -0.048144 0.123348
					CHANNELS 3 Zrotation Yrotation Xrotation
					End Site
					{
						OFFSET 0.000000 0.000000 0.000000
					}
				}
			}
		}
	}
	JOINT Spine
	{
		OFFSET -0.002533 0.108963 -0.026696
		CHANNELS 3 Zrotation Yrotation Xrotation
		JOINT Spine1
		{
			OFFSET 0.005487 0.135180 0.001092
			CHANNELS 3 Zrotation Yrotation Xrotation
			JOINT Spine2
			{
				OFFSET 0.001457 0.052922 0.025425
				CHANNELS 3 Zrotation Yrotation Xrotation
				JOINT Neck
				{
					OFFSET -0.002778 0.213870 -0.042857
					CHANNELS 3 Zrotation Yrotation Xrotation
					JOINT Head
					{
						OFFSET 0.005152 0.064970 0.051349
						CHANNELS 3 Zrotation Yrotation Xrotation
						End Site
						{
							OFFSET 0.000000 0.000000 0.000000
						}
					}
				}
				JOINT LeftShoulder
				{
					OFFSET 0.078845 0.121749 -0.034090
					CHANNELS 3 Zrotation Yrotation Xrotation
					JOINT LeftArm
					{
						OFFSET 0.090977 0.030469 -0.008868
						CHANNELS 3 Zrotation Yrotation Xrotation
						JOINT LeftForeArm
						{
							OFFSET 0.259612 -0.012772 -0.027456
							CHANNELS 3 Zrotation Yrotation Xrotation
							JOINT LeftHand
							{
								OFFSET 0.249234 0.008986 -0.001171
								CHANNELS 3 Zrotation Yrotation Xrotation
								End Site
								{
									OFFSET 0.000000 0.000000 0.000000
								}
							}
						}
					}
				}
				JOINT RightShoulder
				{
					OFFSET -0.081759 0.118833 -0.038615
					CHANNELS 3 Zrotation Yrotation Xrotation
					JOINT RightArm
					{
						OFFSET -0.096012 0.032551 -0.009143
						CHANNELS 3 Zrotation Yrotation Xrotation
						JOINT RightForeArm
						{
							OFFSET -0.253742 -0.013329 -0.021401
							CHANNELS 3 Zrotation Yrotation Xrotation
							JOINT RightHand
							{
								OFFSET -0.255298 0.007772 -0.005559
								CHANNELS 3 Zrotation Yrotation Xrotation
								End Site
								{
									OFFSET 0.000000 0.000000 0.000000
								}
							}
						}
					}
				}
			}
		}
	}
}
MOTION
Frames: 15
Frame Time: 0.050000
0.009573 0.964135 -0.038636 -1.272250 -14.773421 -0.306463 4.216976 0.412406 4.529774 -1.440607 0.333448 -5.795652 0.784375 4.713639 14.854503 0.000000 0.000000 0.000000 -3.456130 0.235565 -0.785624 3.794854 -0.271520 -0.931693 3.697794 -2.016445 15.516257 0.000000 0.000000 0.000000 6.289075 -0.346686 3.562763 -6.495122 1.965103 -22.164787 -2.306502 0.631098 30.707517 9.202722 -3.796844 -35.032597 0.000000 0.000000 0.000000 -12.751348 -17.249050 9.414587 -23.166469 -27.367802 -0.259450 52.217834 -63.757481 -28.009705 0.000000 0.000000 0.000000 27.870550 -1.828953 -6.706061 46.262181 -2.248105 -6.557419 31.499483 50.661868 15.745253 0.000000 0.000000 0.000000 
0.008959 0.964370 -0.038015 -1.340376 -13.621536 -0.124947 4.479663 0.356206 4.069384 -1.553146 0.332414 -5.543003 0.240778 3.972341 14.736858 0.000000 0.000000 0.000000 -3.325413 0.210752 -0.601432 3.795607 -0.283630 -1.111171 3.217009 -2.594321 15.365317 0.000000 0.000000 0.000000 6.371214 -0.326682 3.248924 -7.033824 2.140934 -21.895777 -1.893659 1.287232 30.597022 9.908047 -3.927399 -34.991159 0.000000 0.000000 0.000000 -14.655167 -15.613832 8.772189 -25.549158 -23.041719 -0.880347 40.329829 -69.947453 -23.039413 0.000000 0.000000 0.000000 28.409820 -2.279375 -6.508824 46.269690 -1.860780 -6.581330 29.993389 48.625066 14.653385 0.000000 0.000000 0.000000 
0.008349 0.964257 -0.037123 -1.067153 -12.805794 0.075761 4.508696 0.312103 3.646142 -1.958119 0.363250 -5.420698 -0.169831 3.418485 14.714751 0.000000 0.000000 0.000000 -3.611844 0.237096 -0.867323 3.925851 -0.298779 -1.083882 2.751508 -3.415825 15.653791 0.000000 0.000000 0.000000 6.139545 -0.304605 2.997839 -7.395334 2.254755 -22.065747 -1.547635 2.007933 30.963829 9.951087 -3.781858 -35.042308 0.000000 0.000000 0.000000 -16.515808 -13.295550 7.704262 -27.414129 -18.164157 -1.787518 21.005037 -73.875474 -10.302368 0.000000 0.000000 0.000000 29.058506 -2.172994 -6.047503 46.342369 -1.759819 -6.724955 29.840816 48.056571 14.687614 0.000000 0.000000 0.000000 
0.007803 0.963882 -0.036322 -0.965543 -11.741850 0.064017 4.769833 0.285442 3.514297 -2.408058 0.398822 -5.394759 -0.710808 2.672662 14.580261 0.000000 0.000000 0.000000 -3.731745 0.217149 -0.564697 4.113648 -0.321488 -1.153089 2.163959 -4.079342 15.250432 0.000000 0.000000 0.000000 6.037167 -0.279610 2.717906 -7.710785 2.381249 -21.432140 -1.279894 2.729092 30.699820 10.532616 -3.825834 -35.140465 0.000000 0.000000 0.000000 -18.185480 -11.757497 6.792053 -29.856957 -12.981796 -2.827608 1.525272 -74.792739 4.095121 0.000000 0.000000 0.000000 29.687093 -2.457693 -5.734002 46.421503 -0.986630 -6.615963 29.005850 46.871898 14.205069 0.000000 0.000000 0.000000 
0.007410 0.963273 -0.035710 -0.996997 -10.729547 0.045100 5.182843 0.256222 3.359683 -2.893309 0.434720 -5.272137 -1.204813 1.967466 14.345709 0.000000 0.000000 0.000000 -3.762898 0.212970 -0.607908 4.227368 -0.339743 -1.196280 1.824630 -4.850796 16.057760 0.000000 0.000000 0.000000 6.033221 -0.292800 2.842608 -8.129362 2.515804 -21.559219 -0.918657 3.377576 30.998181 10.457516 -3.565102 -35.426490 0.000000 0.000000 0.000000 -19.403551 -9.618303 5.441427 -32.414268 -8.803488 -3.891256 -13.386125 -75.364026 15.579443 0.000000 0.000000 0.000000 30.166443 -2.627638 -5.333779 46.862439 -0.378103 -6.667262 27.652055 46.331737 13.725849 0.000000 0.000000 0.000000 
0.007116 0.962529 -0.035375 -0.952765 -10.185883 -0.284011 5.471528 0.253383 3.440482 -3.366459 0.470090 -4.895506 -1.467674 1.546795 14.047394 0.000000 0.000000 0.000000 -3.827532 0.181481 -0.140278 4.359573 -0.355017 -1.217034 1.491075 -5.227439 15.801091 0.000000 0.000000 0.000000 5.990214 -0.313429 3.134014 -8.153517 2.530493 -21.670359 -0.539815 4.433737 31.167344 10.739239 -3.405750 -36.064456 0.000000 0.000000 0.000000 -20.468855 -8.146071 4.316712 -32.963423 -5.303647 -4.692429 -14.898443 -75.770088 16.498755 0.000000 0.000000 0.000000 30.870608 -2.785349 -4.908571 46.298975 0.630721 -6.446933 25.809198 46.048121 13.088855 0.000000 0.000000 0.000000 
0.006986 0.962188 -0.035328 -0.779566 -10.028447 -0.547171 5.340354 0.249412 3.326597 -3.421714 0.469461 -4.283849 -1.510302 1.440087 13.833069 0.000000 0.000000 0.000000 -3.952581 0.189507 -0.230289 4.324910 -0.353894 -0.712147 1.267108 -5.594406 15.808946 0.000000 0.000000 0.000000 5.978230 -0.345309 3.542753 -8.657322 2.658487 -22.109647 -0.003357 5.405433 31.294917 10.021842 -2.921843 -35.929274 0.000000 0.000000 0.000000 -20.537151 -6.380518 3.014405 -32.143759 -4.210663 -4.764810 -3.731807 -78.482195 7.778990 0.000000 0.000000 0.000000 31.404587 -2.921060 -4.585542 46.221751 1.432576 -6.315286 23.868663 45.604570 12.309925 0.000000 0.000000 0.000000 
0.006890 0.962207 -0.035715 -0.588139 -9.716469 -1.016849 5.383827 0.260175 3.502197 -3.782570 0.501294 -3.876190 -1.707796 1.164498 13.808301 0.000000 0.000000 0.000000 -4.005362 0.168523 0.068643 4.080139 -0.339258 -0.479815 1.111174 -5.857240 15.917364 0.000000 0.000000 0.000000 5.827559 -0.365336 3.911973 -8.652465 2.656001 -22.390359 0.403722 6.299878 31.353680 9.734535 -2.693831 -35.487923 0.000000 0.000000 0.000000 -20.360409 -6.234983 2.614982 -28.973501 -6.078024 -3.911851 32.575860 -79.273256 -22.898991 0.000000 0.000000 0.000000 32.306456 -3.003253 -4.255168 45.299434 1.909451 -6.203133 22.123417 45.699804 11.743252 0.000000 0.000000 0.000000 
0.006895 0.962515 -0.036439 -0.351830 -9.700787 -1.305362 5.140824 0.278949 3.706483 -3.783627 0.501566 -3.844150 -1.760284 1.127055 13.960214 0.000000 0.000000 0.000000 -4.249210 0.163014 0.344754 4.070161 -0.339364 -0.562730 1.125087 -5.846361 15.953477 0.000000 0.000000 0.000000 5.923811 -0.353697 3.809244 -8.753355 2.669349 -22.820565 0.571134 6.735897 31.484353 9.426975 -2.567120 -34.859233 0.000000 0.000000 0.000000 -19.053382 -6.561196 2.676068 -25.457919 -9.837562 -2.866564 61.583831 -71.991169 -42.954295 0.000000 0.000000 0.000000 32.041871 -2.689706 -3.780854 45.302864 2.438943 -6.100046 20.413707 44.874161 10.841967 0.000000 0.000000 0.000000 
0.006957 0.962937 -0.037496 -0.275555 -9.592540 -1.949041 5.230388 0.330174 4.474327 -4.031275 0.527053 -4.119089 -1.934643 0.942858 14.183029 0.000000 0.000000 0.000000 -4.122413 0.113680 1.014342 3.714623 -0.315619 -0.612127 1.116836 -5.866449 16.010867 0.000000 0.000000 0.000000 5.867949 -0.344013 3.852174 -8.608960 2.647879 -22.615528 0.922344 6.998618 31.144588 8.735865 -2.218824 -34.362054 0.000000 0.000000 0.000000 -17.440972 -9.021734 3.851719 -20.293217 -15.662564 -1.715150 67.851005 -57.893464 -37.929046 0.000000 0.000000 0.000000 31.808071 -2.528022 -3.474596 45.121502 2.842066 -5.962512 18.998119 44.141989 10.078381 0.000000 0.000000 0.000000 
0.007301 0.963405 -0.038786 -0.196913 -9.453754 -2.479883 5.245515 0.369254 5.045597 -4.182194 0.541564 -4.308341 -2.100799 0.770157 14.396898 0.000000 0.000000 0.000000 -4.095187 0.080844 1.489624 3.504049 -0.301547 -0.565763 1.093520 -5.924545 16.109764 0.000000 0.000000 0.000000 5.847377 -0.350857 4.049502 -8.198074 2.517564 -23.320908 0.762175 5.822821 31.241781 7.942155 -2.139507 -33.322131 0.000000 0.000000 0.000000 -15.950934 -11.524307 5.319229 -14.131926 -20.413256 -1.301168 68.450581 -42.186109 -27.356378 0.000000 0.000000 0.000000 31.154887 -1.342889 -3.049879 45.193228 2.812892 -5.840126 18.360016 43.937162 9.590653 0.000000 0.000000 0.000000 
0.007979 0.964161 -0.040218 -0.076292 -9.405647 -2.898504 5.100906 0.396066 5.342263 -4.186610 0.541861 -4.249970 -2.196217 0.704922 14.630062 0.000000 0.000000 0.000000 -4.273855 0.074764 1.712527 3.533396 -0.303131 -0.354337 1.124533 -5.933001 16.297388 0.000000 0.000000 0.000000 5.471315 -0.359725 4.372296 -7.850096 2.424543 -23.462684 0.954691 4.751497 30.723898 7.009433 -1.807999 -33.344502 0.000000 0.000000 0.000000 -13.406753 -13.714256 6.346726 -8.300200 -25.153464 -1.374071 67.763325 -28.653612 -18.131506 0.000000 0.000000 0.000000 30.887774 -0.796660 -3.116859 45.227531 2.569943 -5.737162 17.207178 43.648598 8.877409 0.000000 0.000000 0.000000 
0.008942 0.964656 -0.041849 0.017336 -9.036024 -3.215414 5.312938 0.395595 5.477057 -4.753867 0.594422 -4.196247 -2.479456 0.387180 14.860850 0.000000 0.000000 0.000000 -4.411627 0.060097 2.018355 3.587527 -0.309998 -0.235223 0.934936 -6.116878 16.085330 0.000000 0.000000 0.000000 4.831580 -0.325421 4.220913 -7.034798 2.214981 -23.510909 0.611440 3.652163 30.656131 6.047865 -1.567851 -32.445964 0.000000 0.000000 0.000000 -9.865245 -15.568250 6.875047 -2.140111 -28.616855 -1.936814 66.655704 -17.819212 -11.077378 0.000000 0.000000 0.000000 30.946518 -0.191226 -3.114621 44.629240 2.134156 -5.677158 17.004402 43.962881 8.705941 0.000000 0.000000 0.000000 
0.010094 0.965385 -0.043620 0.195835 -9.228852 -3.546122 5.217714 0.413612 5.589265 -5.028851 0.626056 -3.985407 -2.462653 0.472974 15.113166 0.000000 0.000000 0.000000 -4.651859 0.075959 1.971215 3.549774 -0.299718 0.351506 1.069401 -5.814760 15.807388 0.000000 0.000000 0.000000 4.209213 -0.315427 4.396868 -6.534490 2.077477 -23.695560 0.436998 2.772903 30.645334 5.575841 -1.526776 -32.166649 0.000000 0.000000 0.000000 -6.517179 -16.615698 6.902728 2.274524 -30.899207 -2.548453 67.789275 -12.744246 -8.114095 0.000000 0.000000 0.000000 30.328098 0.590185 -2.945546 45.686108 1.469454 -5.912965 16.461105 44.616635 8.519534 0.000000 0.000000 0.000000 
0.011417 0.965809 -0.045757 0.374181 -8.942878 -3.945507 5.221082 0.437129 5.973545 -5.436163 0.661821 -4.268171 -2.720083 0.211943 15.420760 0.000000 0.000000 0.000000 -4.837761 0.063876 2.316025 3.504586 -0.296364 0.550700 0.891241 -5.909783 15.359052 0.000000 0.000000 0.000000 3.511650 -0.301758 4.569792 -6.040600 1.958292 -23.658159 0.185073 2.202969 30.717473 5.086102 -1.384611 -31.821402 0.000000 0.000000 0.000000 -4.087479 -17.579259 6.873153 6.291591 -32.223504 -3.191583 68.058579 -12.699194 -8.256125 0.000000 0.000000 0.000000 30.098324 0.649678 -3.054291 45.752623 1.304560 -5.929613 16.815202 44.947305 8.672291 0.000000 0.000000 0.000000 
